<svg xmlns="http://www.w3.org/2000/svg" viewBox="0 0 298.8 298.8"><defs><style>.cls-1{fill:none;}.cls-2{fill:#111211;}</style></defs><g id="Laag_2" data-name="Laag 2"><g id="Laag_1-2" data-name="Laag 1"><rect class="cls-1" width="298.8" height="298.8"/><path class="cls-2" d="M163.27,267.75a57.44,57.44,0,0,1-16.42-2.39L90.54,248.6a59.8,59.8,0,0,1-40.75-43.47L35.85,146.94A61.2,61.2,0,0,1,52.33,89.17L94.71,47.74a58.19,58.19,0,0,1,57.23-14.3L208.26,50.2A59.8,59.8,0,0,1,249,93.67L263,151.86a61.18,61.18,0,0,1-16.49,57.77l-42.37,41.43A58.42,58.42,0,0,1,163.27,267.75ZM135.47,76.48a14.29,14.29,0,0,0-10,4.09L83.11,122a15,15,0,0,0-4,14.15L93,194.33A14.68,14.68,0,0,0,103,205l56.32,16.76a14.24,14.24,0,0,0,14-3.5l42.37-41.43a15,15,0,0,0,4-14.14l-13.95-58.19a14.63,14.63,0,0,0-10-10.64L139.49,77.07A13.83,13.83,0,0,0,135.47,76.48Z"/></g></g></svg>